<?xml version="1.0" standalone="no"?>
<!DOCTYPE svg PUBLIC "-//W3C//DTD SVG 20010904//EN"
 "http://www.w3.org/TR/2001/REC-SVG-20010904/DTD/svg10.dtd">
<svg version="1.0" xmlns="http://www.w3.org/2000/svg"
 width="250.000000pt" height="42.000000pt" viewBox="0 0 250.000000 42.000000"
 preserveAspectRatio="xMidYMid meet">

<g transform="translate(0.000000,42.000000) scale(0.100000,-0.100000)"
fill="#000000" stroke="none">
<path d="M135 356 c-26 -18 -15 -50 18 -54 15 -2 27 1 27 7 0 17 66 13 80 -4
9 -11 31 -15 89 -13 l76 2 -77 3 c-65 3 -79 7 -88 23 -8 14 -21 20 -45 20 -19
0 -35 4 -35 9 0 16 -27 20 -45 7z m43 -23 c5 -17 -26 -29 -40 -15 -6 6 -7 15
-3 22 9 14 37 9 43 -7z"/>
<path d="M2306 355 c-9 -10 -34 -15 -70 -15 -44 0 -57 -4 -66 -19 -6 -13 -23
-21 -48 -24 l-37 -4 42 -1 c34 -2 43 2 48 18 5 17 15 20 59 20 35 0 58 -5 66
-15 18 -21 48 -19 55 5 6 20 -9 50 -26 50 -4 0 -14 -7 -23 -15z m44 -21 c0
-20 -30 -30 -40 -13 -11 17 7 40 26 32 8 -3 14 -12 14 -19z"/>
<path d="M1900 285 c0 -8 7 -15 15 -15 8 0 15 7 15 15 0 8 -7 15 -15 15 -8 0
-15 -7 -15 -15z"/>
<path d="M215 263 c-9 -8 -14 -22 -11 -30 3 -8 6 -17 6 -19 0 -2 11 -4 25 -4
14 0 25 5 25 10 0 6 32 10 75 10 43 0 75 4 75 10 0 6 -32 10 -75 10 -41 0 -75
4 -75 9 0 17 -30 20 -45 4z m43 -20 c5 -17 -26 -29 -40 -15 -6 6 -7 15 -3 22
9 14 37 9 43 -7z"/>
<path d="M2220 260 c-9 -17 -22 -20 -78 -22 l-67 -2 64 -3 c45 -3 68 0 80 10
9 8 33 17 53 21 31 6 39 3 48 -14 6 -11 20 -20 31 -20 11 0 27 -7 36 -15 8 -9
23 -15 32 -13 22 4 26 42 6 58 -13 11 -18 10 -33 -4 -25 -22 -59 -20 -67 4 -5
16 -15 20 -50 20 -34 0 -47 -5 -55 -20z m207 -16 c8 -21 -13 -42 -28 -27 -13
13 -5 43 11 43 6 0 13 -7 17 -16z"/>
<path d="M476 244 c-31 -30 -9 -54 50 -54 52 0 74 -8 74 -26 0 -11 -17 -14
-70 -14 -40 0 -70 -4 -70 -10 0 -15 143 -13 158 2 36 36 -3 68 -84 68 -53 0
-58 23 -6 28 18 2 32 7 32 13 0 15 -67 10 -84 -7z"/>
<path d="M668 249 c-24 -13 -26 -119 -3 -119 11 0 15 12 15 50 0 45 3 50 25
56 41 10 54 -1 57 -52 4 -64 26 -70 30 -8 3 53 21 70 61 60 25 -6 27 -11 27
-56 0 -38 4 -50 15 -50 21 0 21 93 0 114 -18 17 -198 21 -227 5z"/>
<path d="M996 244 c-21 -20 -21 -78 0 -98 11 -12 36 -16 95 -16 46 0 79 4 79
10 0 6 -28 10 -64 10 -85 0 -96 5 -96 45 0 40 11 45 96 45 36 0 64 4 64 10 0
6 -33 10 -79 10 -59 0 -84 -4 -95 -16z"/>
<path d="M1206 244 c-21 -20 -21 -78 0 -98 10 -11 34 -16 75 -16 67 0 99 21
99 65 0 44 -32 65 -99 65 -41 0 -65 -5 -75 -16z m128 -10 c22 -8 22 -70 0 -78
-20 -8 -78 -8 -98 0 -19 7 -22 70 -3 77 18 8 83 8 101 1z"/>
<path d="M1418 249 c-14 -8 -18 -23 -18 -65 0 -71 23 -69 30 2 4 41 8 49 28
52 12 2 22 8 22 13 0 12 -40 11 -62 -2z"/>
<path d="M1512 251 c-8 -4 -12 -19 -10 -32 3 -21 9 -25 58 -29 103 -10 106
-40 4 -40 -36 0 -64 -4 -64 -10 0 -11 118 -14 144 -4 18 7 22 49 5 60 -7 4
-37 10 -68 13 -61 7 -75 24 -23 29 17 2 32 7 32 13 0 11 -60 12 -78 0z"/>
<path d="M1780 250 c0 -5 13 -10 29 -10 17 0 33 -4 36 -10 4 -6 -21 -10 -67
-10 -79 0 -98 -9 -98 -47 0 -31 28 -43 104 -43 75 0 96 14 96 65 0 18 -7 41
-16 49 -17 18 -84 22 -84 6z m70 -69 c0 -23 -19 -31 -73 -31 -50 0 -72 12 -64
34 5 12 21 16 72 16 57 0 65 -2 65 -19z"/>
<path d="M1900 196 c0 -53 3 -66 15 -66 13 0 15 11 13 62 -2 38 -8 63 -15 66
-10 3 -13 -14 -13 -62z"/>
<path d="M1968 249 c-24 -14 -26 -119 -3 -119 11 0 15 12 15 50 0 48 1 51 30
56 16 4 27 10 24 15 -7 12 -45 11 -66 -2z"/>
<path d="M60 195 c0 -30 25 -43 51 -27 26 17 56 15 63 -3 8 -21 102 -21 109 0
4 10 26 15 74 18 l68 3 -71 2 c-56 2 -73 -1 -78 -13 -4 -10 -20 -15 -50 -15
-36 0 -46 4 -51 20 -4 13 -15 20 -30 20 -13 0 -27 5 -30 10 -3 6 -17 10 -31
10 -19 0 -24 -5 -24 -25z m50 -5 c0 -13 -7 -20 -20 -20 -13 0 -20 7 -20 20 0
13 7 20 20 20 13 0 20 -7 20 -20z"/>
<path d="M2247 205 c-9 -9 -41 -15 -88 -18 l-74 -3 73 -2 c54 -1 74 -6 78 -17
8 -20 50 -19 58 1 10 25 7 33 -13 44 -15 7 -23 6 -34 -5z m39 -34 c-9 -14 -33
-14 -41 -1 -4 6 -1 18 6 26 11 13 14 13 27 0 8 -8 11 -19 8 -25z"/>
<path d="M930 140 c0 -5 7 -10 15 -10 8 0 15 5 15 10 0 6 -7 10 -15 10 -8 0
-15 -4 -15 -10z"/>
<path d="M327 115 c-8 -18 -107 -21 -136 -3 -24 15 -51 4 -51 -22 0 -26 27
-37 51 -22 10 7 42 12 71 12 43 0 56 4 66 21 7 12 11 23 9 25 -3 3 -7 -2 -10
-11z m-137 -25 c0 -13 -7 -20 -20 -20 -13 0 -20 7 -20 20 0 13 7 20 20 20 13
0 20 -7 20 -20z"/>
<path d="M2153 123 c57 -3 79 -8 84 -18 3 -9 18 -15 38 -15 18 0 38 -7 45 -15
18 -22 48 -18 55 6 9 26 -15 52 -38 43 -9 -3 -17 -10 -17 -15 0 -16 -70 -10
-76 6 -5 12 -23 15 -88 13 l-81 -2 78 -3z m217 -29 c0 -20 -30 -30 -40 -13
-11 17 7 40 26 32 8 -3 14 -12 14 -19z"/>
</g>
</svg>
